<svg width="1440" height="236" viewBox="0 0 1440 236" fill="none" xmlns="http://www.w3.org/2000/svg">
<path d="M422.79 125.515C627.572 86.3604 805.721 52.4027 898.31 192.677C901.194 197.046 898.014 202.789 892.779 202.789C890.791 202.789 888.902 201.9 887.598 200.401C840.026 145.708 773.9 127.091 695.593 127.091C619.715 127.091 532.49 144.422 439.838 162.792C335.887 185.266 231.56 217.936 89.8854 210.911C62.2152 209.539 27.1126 205.523 6.62247 202.974C-2.91941 201.787 -10 193.655 -10 184.039C-10 172.483 0.117086 163.552 11.625 164.612C151.012 177.456 292.791 150.369 422.79 125.515Z" fill="url(#paint0_linear_131_730)"/>
<path d="M855.691 181.367C864.986 188.948 859.039 202.789 847.045 202.789C844.672 202.789 842.344 202.174 840.251 201.055C803.277 181.287 757.328 171.214 710.551 172.71C644.99 172.675 518.485 200.739 465.818 202.789H259.072C321.791 194.016 383.272 181.842 442.37 170.097C617.663 135.311 763.769 106.396 855.691 181.367Z" fill="url(#paint1_linear_131_730)"/>
<path d="M384.047 36.2816C602.796 -2.17624 799.064 -24.7831 900.838 115.131C1002.61 255.045 1206.77 183.703 1400.46 109.079C1418.79 102.037 1437.16 94.9746 1455.56 88.0489C1465.25 84.3992 1475.57 91.5807 1475.57 101.937C1475.57 108.13 1471.73 113.671 1465.94 115.877C1436.22 127.202 1406.45 139.154 1376.89 151.047C1330.83 169.595 1208.37 215.294 1242.31 202.789C1276.25 190.285 1038.16 283.411 955.618 202.789C873.08 122.167 876.55 44.7684 662.786 36.8545C581.957 36.8545 492.05 53.3623 399.919 70.2637C274.535 93.2726 137.786 118.335 5.66941 106.315C-3.26798 105.502 -10 97.933 -10 88.9587C-10 78.5238 -0.997662 70.3829 9.41056 71.1284C134.809 80.1098 264.628 57.2892 384.047 36.2816Z" fill="url(#paint2_linear_131_730)"/>
<path d="M364.92 -8.371C576.335 -43.8568 776.061 -77.373 895.628 65.4297C1013.49 206.227 1218.74 130.708 1417.23 57.6949C1430.33 52.8795 1443.49 48.0478 1456.64 43.2661C1465.85 39.9177 1475.57 46.7499 1475.57 56.5498C1475.57 62.4864 1471.86 67.7896 1466.3 69.8542C1441.78 78.9469 1417.24 88.3875 1392.83 97.8C1197.69 172.925 1013.34 243.933 915.539 109.008C850.184 18.9505 756.356 -8.54999 647.982 -8.54999C565.141 -8.58579 473.841 7.49191 380.25 23.9636C255.263 45.9316 127.462 68.3619 5.21798 58.4561C-3.43934 57.7545 -10 50.4514 -10 41.7657C-10 31.813 -1.47036 24.0163 8.46321 24.6327C124.576 31.8371 246.022 11.5878 364.92 -8.371Z" fill="url(#paint3_linear_131_730)"/>
<path d="M403.343 80.9344C620.179 41.1158 807.474 6.70433 906.099 164.904C911.833 174.242 918.549 183.264 926.196 191.885C929.85 196.005 927.028 202.789 921.521 202.789C919.32 202.789 917.279 201.587 916.159 199.692C863.064 109.794 780.8 81.5789 680.634 81.5789C602.745 81.5789 514.023 98.516 419.793 116.527C288.856 141.589 145.84 168.906 6.21993 154.713C-3.05881 153.77 -10 145.876 -10 136.549C-10 125.524 -0.418099 116.964 10.57 117.863C142.861 128.692 278.638 103.81 403.343 80.9344Z" fill="url(#paint4_linear_131_730)"/>
<path d="M345.963 -53.095C559.158 -87.1485 760.586 -119.34 890.521 15.8355C1020.97 151.512 1231.02 77.8194 1434.15 6.52551C1442.04 3.76659 1449.88 1.03056 1457.69 -1.68897C1466.43 -4.73505 1475.57 1.76247 1475.57 11.0249C1475.57 16.7217 1471.98 21.8003 1466.62 23.7233C1447.36 30.6299 1428.08 37.6991 1408.92 44.7684C1209.14 118.247 1020.46 187.679 911.67 57.731C840.126 -27.7429 743.306 -53.9189 633.281 -53.9189C548.428 -53.9189 455.787 -38.3424 360.804 -22.4078C236.584 -1.56747 592.825 19.0941 473.283 8.13678L156 -6.25815C270.755 2.40741 226.659 -34.0093 345.963 -53.095Z" fill="url(#paint5_linear_131_730)"/>
<path d="M1475.57 188.743C1475.57 196.501 1469.24 202.789 1461.49 202.789C1445.94 202.789 1442 181.498 1456.44 175.74C1465.62 172.079 1475.57 178.861 1475.57 188.743Z" fill="url(#paint6_linear_131_730)"/>
<path d="M753.431 180.357C774.207 182.731 770.703 202.789 749.791 202.789H724.659C700.478 202.789 698.612 177.646 722.785 178.274C733.295 178.547 743.516 179.224 753.431 180.357Z" fill="url(#paint7_linear_131_730)"/>
<path d="M1362.19 202.789C1345.05 202.789 1340.47 178.091 1356.38 171.725C1365.45 168.096 1374.56 164.431 1383.7 160.75C1407.23 151.286 1430.85 141.78 1454.47 132.591C1464.65 128.633 1475.57 136.164 1475.57 147.079C1475.57 153.526 1471.6 159.303 1465.6 161.653C1433.08 174.374 1400.51 187.983 1368.14 201.59C1366.26 202.381 1364.23 202.789 1362.19 202.789Z" fill="url(#paint8_linear_131_730)"/>
<defs>
<linearGradient id="paint0_linear_131_730" x1="732.784" y1="-82.8672" x2="732.784" y2="236" gradientUnits="userSpaceOnUse">
<stop stop-color="#0358D8"/>
<stop offset="1" stop-color="#4DE4B9"/>
</linearGradient>
<linearGradient id="paint1_linear_131_730" x1="732.784" y1="-82.8672" x2="732.784" y2="236" gradientUnits="userSpaceOnUse">
<stop stop-color="#0358D8"/>
<stop offset="1" stop-color="#4DE4B9"/>
</linearGradient>
<linearGradient id="paint2_linear_131_730" x1="732.784" y1="-82.8672" x2="732.784" y2="236" gradientUnits="userSpaceOnUse">
<stop stop-color="#0358D8"/>
<stop offset="1" stop-color="#4DE4B9"/>
</linearGradient>
<linearGradient id="paint3_linear_131_730" x1="732.784" y1="-82.8672" x2="732.784" y2="236" gradientUnits="userSpaceOnUse">
<stop stop-color="#0358D8"/>
<stop offset="1" stop-color="#4DE4B9"/>
</linearGradient>
<linearGradient id="paint4_linear_131_730" x1="732.784" y1="-82.8672" x2="732.784" y2="236" gradientUnits="userSpaceOnUse">
<stop stop-color="#0358D8"/>
<stop offset="1" stop-color="#4DE4B9"/>
</linearGradient>
<linearGradient id="paint5_linear_131_730" x1="732.784" y1="-82.8672" x2="732.784" y2="236" gradientUnits="userSpaceOnUse">
<stop stop-color="#0358D8"/>
<stop offset="1" stop-color="#4DE4B9"/>
</linearGradient>
<linearGradient id="paint6_linear_131_730" x1="732.784" y1="-82.8672" x2="732.784" y2="236" gradientUnits="userSpaceOnUse">
<stop stop-color="#0358D8"/>
<stop offset="1" stop-color="#4DE4B9"/>
</linearGradient>
<linearGradient id="paint7_linear_131_730" x1="732.784" y1="-82.8672" x2="732.784" y2="236" gradientUnits="userSpaceOnUse">
<stop stop-color="#0358D8"/>
<stop offset="1" stop-color="#4DE4B9"/>
</linearGradient>
<linearGradient id="paint8_linear_131_730" x1="732.784" y1="-82.8672" x2="732.784" y2="236" gradientUnits="userSpaceOnUse">
<stop stop-color="#0358D8"/>
<stop offset="1" stop-color="#4DE4B9"/>
</linearGradient>
</defs>
</svg>
