<svg width="1440" height="236" viewBox="0 0 1440 236" fill="none" xmlns="http://www.w3.org/2000/svg">
<path d="M1017.21 110.485C812.428 149.64 634.279 183.597 541.69 43.3235C538.806 38.9543 541.986 33.2107 547.221 33.2107C549.209 33.2107 551.098 34.0999 552.402 35.5994C599.974 90.2925 666.1 108.909 744.407 108.909C820.285 108.909 907.51 91.5781 1000.16 73.2085C1104.11 50.7345 1208.44 18.0638 1350.11 25.0891C1377.78 26.4612 1412.89 30.4771 1433.38 33.026C1442.92 34.2129 1450 42.3454 1450 51.9608C1450 63.5174 1439.88 72.4484 1428.38 71.388C1288.99 58.5441 1147.21 85.6312 1017.21 110.485Z" fill="url(#paint0_linear_805_605)"/>
<path d="M584.309 54.6327C575.014 47.0524 580.961 33.2107 592.955 33.2107C595.328 33.2107 597.656 33.8257 599.749 34.9446C636.723 54.7131 682.672 64.7862 729.449 63.2896C795.01 63.3255 921.515 35.2611 974.182 33.2107L1180.93 33.2107C1118.21 41.9837 1056.73 54.1584 997.63 65.9035C822.337 100.689 676.231 129.604 584.309 54.6327Z" fill="url(#paint1_linear_805_605)"/>
<path d="M1055.95 199.718C837.204 238.176 640.936 260.783 539.162 120.869C437.388 -19.0453 233.228 52.2966 39.5367 126.921C21.2146 133.964 2.83702 141.026 -15.5554 147.951C-25.2478 151.601 -35.5668 144.419 -35.5668 134.063C-35.5668 127.87 -31.7283 122.329 -25.9413 120.123C3.77549 108.798 33.5477 96.8465 63.1098 84.9535C109.173 66.4049 231.631 20.7061 197.688 33.2108C163.745 45.7154 401.843 -47.4112 484.382 33.2107C566.92 113.833 563.45 191.232 777.214 199.146C858.043 199.146 947.95 182.638 1040.08 165.736C1165.47 142.727 1302.21 117.665 1434.33 129.685C1443.27 130.498 1450 138.067 1450 147.041C1450 157.476 1441 165.617 1430.59 164.872C1305.19 155.89 1175.37 178.711 1055.95 199.718Z" fill="url(#paint2_linear_805_605)"/>
<path d="M1075.08 244.371C863.665 279.857 663.939 313.373 544.372 170.57C426.506 29.773 221.261 105.293 22.7724 178.305C9.66588 183.121 -3.48756 187.952 -16.6405 192.734C-25.8507 196.082 -35.5668 189.25 -35.5668 179.45C-35.5668 173.514 -31.8618 168.21 -26.2958 166.146C-1.78114 157.053 22.7562 147.613 47.1712 138.2C242.307 63.0748 426.661 -7.93262 524.461 126.992C589.816 217.05 683.644 244.55 792.018 244.55C874.859 244.586 966.159 228.508 1059.75 212.036C1184.74 190.068 1312.54 167.638 1434.78 177.544C1443.44 178.245 1450 185.549 1450 194.234C1450 204.187 1441.47 211.984 1431.54 211.367C1315.42 204.163 1193.98 224.412 1075.08 244.371Z" fill="url(#paint3_linear_805_605)"/>
<path d="M1036.66 155.066C819.821 194.884 632.526 229.296 533.901 71.0957C528.167 61.7585 521.451 52.7364 513.804 44.115C510.15 39.9951 512.972 33.2107 518.479 33.2107C520.68 33.2107 522.721 34.4132 523.841 36.3082C576.936 126.207 659.2 154.421 759.366 154.421C837.255 154.421 925.977 137.484 1020.21 119.473C1151.14 94.4115 1294.16 67.0938 1433.78 81.2871C1443.06 82.2304 1450 90.1245 1450 99.451C1450 110.476 1440.42 119.036 1429.43 118.137C1297.14 107.308 1161.36 132.19 1036.66 155.066Z" fill="url(#paint4_linear_805_605)"/>
<path d="M1094.04 289.095C880.842 323.149 679.414 355.34 549.479 220.165C419.027 84.4877 208.984 158.181 5.85375 229.475C-2.03638 232.234 -9.87672 234.97 -17.6863 237.689C-26.4335 240.735 -35.5668 234.238 -35.5668 224.975C-35.5668 219.278 -31.9818 214.2 -26.6194 212.277C-7.36036 205.37 11.9167 198.301 31.0776 191.232C230.855 117.754 419.543 48.3216 528.33 178.269C599.874 263.743 696.694 289.919 806.719 289.919C891.572 289.919 984.213 274.342 1079.2 258.408C1203.42 237.567 847.175 216.906 966.717 227.863L1284 242.258C1169.25 233.593 1213.34 270.009 1094.04 289.095Z" fill="url(#paint5_linear_805_605)"/>
<path d="M-35.5653 47.257C-35.5653 39.4995 -29.245 33.2108 -21.4876 33.2108C-5.94363 33.2108 -2.001 54.5017 -16.439 60.2602C-25.6184 63.9212 -35.5653 57.1395 -35.5653 47.257Z" fill="url(#paint6_linear_805_605)"/>
<path d="M686.569 55.6434C665.793 53.2693 669.297 33.2107 690.209 33.2107L715.341 33.2107C739.522 33.2107 741.388 58.3541 717.215 57.7264C706.705 57.4535 696.484 56.7765 686.569 55.6434Z" fill="url(#paint7_linear_805_605)"/>
<path d="M77.81 33.2108C94.9469 33.2108 99.5345 57.9089 83.6238 64.2746C74.5522 67.9041 65.4419 71.569 56.2991 75.2496C32.7685 84.7139 9.14622 94.2206 -14.4737 103.409C-24.6459 107.367 -35.5687 99.8362 -35.5687 88.9213C-35.5687 82.4742 -31.5993 76.6966 -25.5954 74.3475C6.9177 61.6264 39.4859 48.0175 71.86 34.4105C73.7437 33.6187 75.7666 33.2108 77.81 33.2108Z" fill="url(#paint8_linear_805_605)"/>
<defs>
<linearGradient id="paint0_linear_805_605" x1="707.216" y1="318.867" x2="707.216" y2="0.000461665" gradientUnits="userSpaceOnUse">
<stop stop-color="#0358D8"/>
<stop offset="1" stop-color="#4DE4B9"/>
</linearGradient>
<linearGradient id="paint1_linear_805_605" x1="707.216" y1="318.867" x2="707.216" y2="0.000461665" gradientUnits="userSpaceOnUse">
<stop stop-color="#0358D8"/>
<stop offset="1" stop-color="#4DE4B9"/>
</linearGradient>
<linearGradient id="paint2_linear_805_605" x1="707.216" y1="318.867" x2="707.216" y2="0.000461665" gradientUnits="userSpaceOnUse">
<stop stop-color="#0358D8"/>
<stop offset="1" stop-color="#4DE4B9"/>
</linearGradient>
<linearGradient id="paint3_linear_805_605" x1="707.216" y1="318.867" x2="707.216" y2="0.000461665" gradientUnits="userSpaceOnUse">
<stop stop-color="#0358D8"/>
<stop offset="1" stop-color="#4DE4B9"/>
</linearGradient>
<linearGradient id="paint4_linear_805_605" x1="707.216" y1="318.867" x2="707.216" y2="0.000461665" gradientUnits="userSpaceOnUse">
<stop stop-color="#0358D8"/>
<stop offset="1" stop-color="#4DE4B9"/>
</linearGradient>
<linearGradient id="paint5_linear_805_605" x1="707.216" y1="318.867" x2="707.216" y2="0.000461665" gradientUnits="userSpaceOnUse">
<stop stop-color="#0358D8"/>
<stop offset="1" stop-color="#4DE4B9"/>
</linearGradient>
<linearGradient id="paint6_linear_805_605" x1="707.216" y1="318.867" x2="707.216" y2="0.000461665" gradientUnits="userSpaceOnUse">
<stop stop-color="#0358D8"/>
<stop offset="1" stop-color="#4DE4B9"/>
</linearGradient>
<linearGradient id="paint7_linear_805_605" x1="707.216" y1="318.867" x2="707.216" y2="0.000461665" gradientUnits="userSpaceOnUse">
<stop stop-color="#0358D8"/>
<stop offset="1" stop-color="#4DE4B9"/>
</linearGradient>
<linearGradient id="paint8_linear_805_605" x1="707.216" y1="318.867" x2="707.216" y2="0.000461665" gradientUnits="userSpaceOnUse">
<stop stop-color="#0358D8"/>
<stop offset="1" stop-color="#4DE4B9"/>
</linearGradient>
</defs>
</svg>
