<svg width="41" height="40" viewBox="0 0 41 40" fill="none" xmlns="http://www.w3.org/2000/svg">
<circle cx="20.5" cy="20" r="20" fill="#929292"/>
<path d="M26 28.0995L26 11.899C25.9994 11.735 25.9491 11.5742 25.8544 11.434C25.7596 11.2938 25.6242 11.1794 25.4625 11.1032C25.3008 11.027 25.1191 10.9919 24.9368 11.0016C24.7546 11.0113 24.5787 11.0655 24.4282 11.1583L11.405 19.2585C10.865 19.5942 10.865 20.4024 11.405 20.739L24.4282 28.8393C24.5784 28.933 24.7543 28.988 24.9369 28.9983C25.1194 29.0085 25.3016 28.9736 25.4636 28.8973C25.6257 28.8211 25.7613 28.7064 25.8559 28.5657C25.9504 28.425 26.0003 28.2638 26 28.0995Z" fill="white"/>
</svg>
