<svg width="332" height="332" viewBox="0 0 332 332" fill="none" xmlns="http://www.w3.org/2000/svg">
<path fill-rule="evenodd" clip-rule="evenodd" d="M250.724 75.6874H239.117V58H250.724C268.75 58 283.363 72.613 283.363 90.639V141.564L305.955 165.618L283.363 189.672V240.592C283.363 258.618 268.75 273.231 250.724 273.231H239.117V255.544H250.724C258.982 255.544 265.676 248.85 265.676 240.592V179.705L278.911 165.614L265.676 151.523V90.639C265.676 82.3815 258.982 75.6874 250.724 75.6874Z" fill="#52EDB6"/>
<path fill-rule="evenodd" clip-rule="evenodd" d="M250.724 75.6874H239.117V58H250.724C268.75 58 283.363 72.613 283.363 90.639V141.564L305.955 165.618L283.363 189.672V240.592C283.363 258.618 268.75 273.231 250.724 273.231H239.117V255.544H250.724C258.982 255.544 265.676 248.85 265.676 240.592V179.705L278.911 165.614L265.676 151.523V90.639C265.676 82.3815 258.982 75.6874 250.724 75.6874Z" fill="url(#paint0_linear_35_328)"/>
<path fill-rule="evenodd" clip-rule="evenodd" d="M82.2349 75.6874H90.0229V58H82.2349C64.2089 58 49.5959 72.613 49.5959 90.639V141.563L27.0029 165.618L49.5959 189.673V240.592C49.5959 258.618 64.2089 273.231 82.2349 273.231H90.0229V255.544H82.2349C73.9774 255.544 67.2833 248.85 67.2833 240.592V179.709L54.0448 165.614L67.2833 151.519V90.639C67.2833 82.3815 73.9774 75.6874 82.2349 75.6874Z" fill="#52EDB6"/>
<path fill-rule="evenodd" clip-rule="evenodd" d="M82.2349 75.6874H90.0229V58H82.2349C64.2089 58 49.5959 72.613 49.5959 90.639V141.563L27.0029 165.618L49.5959 189.673V240.592C49.5959 258.618 64.2089 273.231 82.2349 273.231H90.0229V255.544H82.2349C73.9774 255.544 67.2833 248.85 67.2833 240.592V179.709L54.0448 165.614L67.2833 151.519V90.639C67.2833 82.3815 73.9774 75.6874 82.2349 75.6874Z" fill="url(#paint1_linear_35_328)"/>
<path fill-rule="evenodd" clip-rule="evenodd" d="M211.412 93.9853C211.412 87.4631 206.125 82.1758 199.602 82.1758C193.08 82.1758 187.793 87.4631 187.793 93.9853V145.515C180.437 141.978 171.109 140.001 159.466 140.541C142.542 141.325 132.063 149.247 126.161 157.71C123.355 161.732 121.72 165.66 120.776 168.585C120.3 170.06 119.986 171.323 119.783 172.275C119.681 172.753 119.607 173.157 119.553 173.474C119.526 173.634 119.504 173.772 119.487 173.887C119.478 173.945 119.471 173.998 119.464 174.044L119.455 174.11L119.452 174.139L119.45 174.153C119.449 174.16 119.448 174.166 131.123 175.686L119.448 174.166C118.606 180.634 123.166 186.56 129.634 187.402C136.044 188.236 141.922 183.764 142.845 177.388C142.851 177.357 142.863 177.292 142.883 177.199C142.94 176.935 143.054 176.458 143.254 175.838C143.663 174.571 144.372 172.886 145.533 171.221C147.565 168.308 151.514 164.553 160.559 164.134C176.529 163.395 182.23 169.185 184.699 173.053C186.203 175.41 187.009 177.904 187.423 179.889C187.626 180.859 187.719 181.637 187.762 182.116C187.782 182.34 187.79 182.492 187.793 182.558V198.79C187.793 206.952 185.137 212.426 181.35 214.906C176.816 217.875 171.704 219.961 166.471 219.961C155.717 219.961 149.668 216.304 146.351 213.319C144.595 211.738 143.439 210.188 142.758 209.115C142.419 208.583 142.208 208.183 142.107 207.981C142.081 207.928 142.062 207.89 142.052 207.866C139.575 201.939 132.795 199.067 126.799 201.446C120.737 203.853 117.774 210.718 120.18 216.78L131.156 212.423C120.18 216.78 120.183 216.787 120.185 216.793L120.191 216.807L120.203 216.837L120.229 216.901C120.247 216.946 120.268 216.996 120.291 217.051C120.337 217.161 120.393 217.29 120.458 217.437C120.589 217.731 120.759 218.098 120.973 218.527C121.4 219.383 122.005 220.495 122.819 221.776C124.441 224.331 126.932 227.618 130.551 230.875C137.983 237.564 149.591 243.58 166.471 243.58C177.902 243.58 187.514 239.102 194.29 234.665C207.495 226.016 211.412 210.94 211.412 198.79V182.439V182.424V93.9853ZM174.177 136.289L181.668 138.652L180.258 93.3835C180.2 91.5327 179.003 89.9107 177.252 89.3096C166.107 85.4851 155.828 96.91 160.805 107.59L174.177 136.289ZM156.036 136.289H167.517L155.656 112.244C154.73 110.366 152.199 110.022 150.805 111.585L149.044 113.559C144.876 118.234 145.082 125.35 149.513 129.776L156.036 136.289Z" fill="#0063F8"/>
<defs>
<linearGradient id="paint0_linear_35_328" x1="246.593" y1="100.841" x2="265.786" y2="271.441" gradientUnits="userSpaceOnUse">
<stop stop-color="#0063F8"/>
<stop offset="1" stop-color="#52EDB6"/>
</linearGradient>
<linearGradient id="paint1_linear_35_328" x1="82.9742" y1="100.841" x2="62.65" y2="271.175" gradientUnits="userSpaceOnUse">
<stop stop-color="#0063F8"/>
<stop offset="1" stop-color="#52EDB6"/>
</linearGradient>
</defs>
</svg>
