<svg width="24" height="24" viewBox="0 0 24 24" fill="none" xmlns="http://www.w3.org/2000/svg">
<g clip-path="url(#clip0_163_2998)">
<path d="M22.2295 9.08847e-05H1.77049C1.30629 -0.0046333 0.859174 0.174984 0.52725 0.499529C0.195326 0.824074 0.00570713 1.26704 0 1.73123V22.2727C0.00673925 22.7362 0.196812 23.1782 0.528624 23.5019C0.860435 23.8256 1.30696 24.0046 1.77049 23.9999H22.2295C22.6937 24.0036 23.1406 23.8234 23.4723 23.4986C23.8041 23.1739 23.9938 22.731 24 22.2668V1.72532C23.9917 1.2625 23.8011 0.821646 23.4696 0.49859C23.138 0.175535 22.6924 -0.00361171 22.2295 9.08847e-05Z" fill="#929292"/>
<path d="M4.27 9.4375H7.66563V20.3631H4.27V9.4375ZM5.96875 4C6.35821 4 6.73892 4.11551 7.06272 4.33192C7.38652 4.54834 7.63886 4.85592 7.78782 5.21578C7.93677 5.57563 7.97565 5.97157 7.89953 6.35352C7.82342 6.73548 7.63572 7.08627 7.3602 7.36153C7.08468 7.63679 6.73371 7.82415 6.35168 7.8999C5.96966 7.97565 5.57375 7.9364 5.21404 7.7871C4.85433 7.6378 4.54699 7.38517 4.33088 7.06116C4.11478 6.73716 3.99963 6.35634 4 5.96687C4.0005 5.44505 4.20814 4.94478 4.5773 4.57597C4.94646 4.20716 5.44693 4 5.96875 4ZM9.79563 9.4375H13.0506V10.9375H13.0956C13.5494 10.0787 14.6556 9.17312 16.3075 9.17312C19.7463 9.16562 20.3838 11.4287 20.3838 14.3631V20.3631H16.9881V15.0475C16.9881 13.7819 16.9656 12.1525 15.2238 12.1525C13.4819 12.1525 13.1856 13.5325 13.1856 14.965V20.3631H9.79563V9.4375Z" fill="white"/>
</g>
<defs>
<clipPath id="clip0_163_2998">
<rect width="24" height="24" fill="white"/>
</clipPath>
</defs>
</svg>
