<svg width="24" height="24" viewBox="0 0 24 24" fill="none" xmlns="http://www.w3.org/2000/svg">
<g clip-path="url(#clip0_236_1226)">
<rect y="1" width="22" height="22" rx="11" fill="white"/>
<path d="M3 0H21C22.6554 0 24 1.34464 24 3V21C24 22.6554 22.6554 24 21 24H3C1.34464 24 0 22.6554 0 21V3C0 1.34464 1.34464 0 3 0ZM14.5125 12.975C14.8661 10.1411 15.9 9.25179 17.2661 9.25179C18.6214 9.25179 19.6714 10.3339 19.6714 11.9143C19.6714 13.4946 18.6161 14.5768 17.2661 14.5768C15.7714 14.5768 14.7857 13.425 14.5125 12.975ZM13.0821 10.7357C12.6429 9.90536 12.3161 8.79107 12.0536 7.75714H8.68393V11.9411C8.68393 13.4625 7.99286 14.5875 6.6375 14.5875C5.28214 14.5875 4.50536 13.4679 4.50536 11.9464L4.52143 7.7625H2.58214V11.9464C2.58214 13.1679 2.97857 14.2768 3.70179 15.0643C4.44643 15.8786 5.45893 16.3071 6.6375 16.3071C8.97857 16.3071 10.6125 14.5125 10.6125 11.9411V9.12857C10.8589 10.0554 11.4375 11.8339 12.5518 13.3982L11.5179 19.3179H13.4893L14.175 15.1179C14.4 15.3054 14.6411 15.4714 14.8929 15.6214C15.5518 16.0393 16.3071 16.275 17.0839 16.2964H17.2661C19.6821 16.2964 21.6 14.4268 21.6 11.9089C21.6 9.39107 19.6768 7.50536 17.2661 7.50536C14.8339 7.50536 13.4679 9.09643 13.0821 10.725V10.7357Z" fill="#4CE1BA"/>
</g>
<defs>
<clipPath id="clip0_236_1226">
<rect width="24" height="24" fill="white"/>
</clipPath>
</defs>
</svg>
